<?xml version="1.0" standalone="no"?>
<!DOCTYPE svg PUBLIC "-//W3C//DTD SVG 20010904//EN"
 "http://www.w3.org/TR/2001/REC-SVG-20010904/DTD/svg10.dtd">
<svg version="1.0" xmlns="http://www.w3.org/2000/svg"
 width="364.000000pt" height="364.000000pt" viewBox="0 0 364.000000 364.000000"
 preserveAspectRatio="xMidYMid meet">
<metadata>
Created by potrace 1.11, written by Peter Selinger 2001-2013
</metadata>
<g transform="translate(0.000000,364.000000) scale(0.100000,-0.100000)"
fill="#000000" stroke="none">
<path d="M555 2810 c3 -4 -2 -11 -11 -14 -10 -4 -13 -2 -8 7 6 9 4 9 -7 1 -8
-6 -22 -10 -32 -9 -15 3 -16 1 -6 -11 9 -11 9 -14 -1 -14 -7 0 -10 -7 -6 -16
4 -11 2 -15 -7 -11 -9 3 -13 -2 -11 -16 1 -12 3 -26 3 -30 1 -5 7 -5 14 -1 6
4 4 -2 -6 -13 -13 -15 -15 -23 -7 -28 9 -6 9 -10 -1 -16 -11 -7 -9 -9 6 -9 12
0 16 -3 9 -8 -16 -11 -24 -41 -12 -48 7 -4 6 -9 -3 -15 -11 -7 -9 -9 6 -9 12
0 16 -3 9 -8 -19 -13 -22 -50 -6 -73 8 -12 11 -19 5 -16 -16 10 -22 -15 -10
-38 15 -28 17 -45 5 -45 -6 0 -7 8 -3 18 5 13 4 14 -6 5 -9 -9 -8 -18 6 -39 9
-14 12 -24 7 -20 -15 9 -21 -16 -9 -39 15 -28 17 -45 5 -45 -6 0 -7 8 -3 18 5
13 4 14 -6 5 -10 -10 -9 -15 1 -28 9 -11 9 -15 1 -15 -7 0 -9 -5 -6 -10 4 -6
12 -7 18 -3 7 3 4 -3 -6 -14 -13 -15 -15 -23 -7 -28 9 -6 9 -10 -1 -16 -11 -7
-9 -9 6 -9 12 0 16 -3 9 -8 -16 -11 -24 -41 -12 -48 7 -4 6 -9 -3 -15 -11 -7
-10 -9 4 -9 17 0 17 -2 3 -15 -17 -17 -11 -49 8 -38 6 3 3 -3 -7 -14 -18 -21
-13 -58 7 -46 6 4 5 -1 -3 -11 -13 -15 -13 -19 0 -27 10 -6 10 -9 2 -9 -7 0
-13 -5 -13 -11 0 -5 6 -7 13 -4 6 4 3 -1 -7 -9 -20 -16 -20 -16 0 -16 16 0 17
-2 4 -10 -12 -7 -12 -10 -1 -10 7 0 11 -6 7 -15 -3 -8 -2 -14 2 -14 21 3 43
-2 38 -9 -3 -5 8 -6 25 -4 54 8 55 19 54 449 0 215 3 390 6 387 4 -2 5 5 2 17
-5 18 -2 20 23 18 16 -2 34 -7 41 -12 6 -4 14 -4 17 2 4 6 13 8 20 5 8 -3 17
-1 21 5 4 7 15 5 33 -7 14 -9 23 -12 19 -6 -4 7 0 15 9 18 12 5 15 2 10 -10
-5 -13 -3 -14 6 -7 7 6 23 9 36 7 17 -3 21 0 16 8 -6 10 -5 10 8 1 8 -7 18
-10 21 -6 4 3 7 0 7 -7 0 -9 5 -7 16 6 14 17 15 17 10 1 -4 -13 -2 -16 7 -10
6 4 17 8 22 9 6 1 15 3 20 4 6 1 16 2 24 1 11 -1 11 -4 0 -18 -11 -15 -10 -14
9 1 12 11 22 15 22 10 0 -5 5 -2 10 6 6 10 10 11 10 3 0 -13 34 -13 46 -1 10
11 34 -3 27 -16 -4 -6 1 -5 10 3 9 7 17 10 17 5 0 -5 5 -2 10 6 6 10 10 11 10
3 0 -13 34 -13 46 -1 10 11 34 -3 27 -16 -4 -8 -2 -8 7 1 7 6 19 9 28 6 11 -5
13 -3 7 7 -6 10 -4 11 6 4 24 -14 51 -16 43 -2 -6 9 -3 9 9 0 9 -8 22 -11 29
-7 7 4 4 -1 -7 -11 -20 -17 -17 -17 30 2 8 3 15 2 15 -3 0 -5 10 -9 22 -10 11
-1 24 -7 28 -14 6 -8 9 -8 13 2 4 10 6 10 6 2 1 -7 8 -13 16 -13 8 0 15 -5 15
-11 0 -5 5 -7 10 -4 6 4 24 -8 41 -25 17 -17 29 -23 25 -14 -5 14 -4 15 9 4 8
-7 15 -19 15 -27 0 -8 4 -12 8 -9 5 3 19 -8 32 -25 14 -16 30 -29 37 -29 12 0
17 -13 14 -34 -1 -5 5 -6 14 -2 9 3 14 2 11 -3 -3 -5 1 -14 9 -21 18 -15 20
-34 3 -24 -10 6 -10 4 -2 -7 6 -8 14 -22 18 -33 5 -14 3 -17 -11 -12 -14 6
-14 4 3 -15 10 -12 13 -19 7 -15 -7 4 -13 2 -13 -3 0 -6 5 -11 12 -11 6 0 3
-7 -8 -16 -10 -8 -14 -13 -7 -10 6 4 14 2 17 -3 3 -5 -1 -11 -9 -15 -12 -4
-12 -10 1 -42 14 -34 14 -36 -2 -30 -16 6 -16 4 2 -15 10 -12 13 -19 7 -15 -7
4 -13 2 -13 -3 0 -6 5 -11 12 -11 6 0 4 -6 -7 -13 -14 -11 -15 -16 -5 -22 9
-6 11 -4 5 5 -5 9 -4 11 4 6 6 -4 9 -11 6 -16 -9 -14 -14 -90 -5 -85 4 2 5 -7
2 -20 -2 -14 -8 -22 -13 -19 -5 3 -9 0 -9 -5 0 -6 8 -11 18 -12 10 0 12 -3 5
-6 -7 -2 -13 -9 -13 -14 0 -6 4 -8 9 -5 4 3 6 -6 3 -19 -2 -14 -8 -22 -13 -19
-5 3 -9 0 -9 -5 0 -6 6 -11 13 -11 8 0 14 -7 14 -15 0 -8 -4 -12 -9 -9 -8 5
-4 -27 8 -65 3 -9 -1 -11 -13 -7 -14 6 -14 4 3 -15 10 -12 13 -19 7 -15 -7 4
-13 2 -13 -3 0 -6 5 -11 12 -11 6 0 3 -7 -8 -16 -10 -8 -14 -13 -8 -10 7 3 15
-1 18 -10 3 -8 2 -13 -2 -10 -4 3 -14 -5 -22 -17 -12 -20 -12 -21 3 -9 10 9
17 10 22 2 3 -5 0 -10 -7 -10 -9 0 -9 -3 2 -10 12 -8 12 -10 1 -10 -11 0 -11
-3 0 -17 10 -11 10 -14 2 -9 -16 9 -16 5 -3 -28 6 -16 6 -27 0 -31 -6 -4 -10
-11 -10 -16 0 -6 4 -8 9 -5 4 3 6 -6 3 -19 -2 -14 -8 -22 -13 -19 -5 3 -9 0
-9 -5 0 -6 8 -11 18 -12 10 0 12 -3 5 -6 -7 -2 -13 -9 -13 -14 0 -6 4 -8 9 -5
4 3 6 -6 3 -19 -2 -14 -8 -22 -13 -19 -5 3 -9 0 -9 -5 0 -6 7 -11 15 -11 8 0
15 -5 15 -11 0 -6 -7 -8 -17 -5 -14 6 -14 3 3 -15 10 -12 13 -19 7 -15 -7 4
-13 2 -13 -3 0 -6 5 -11 12 -11 6 0 3 -7 -8 -16 -10 -8 -14 -13 -7 -10 6 4 14
2 17 -3 3 -5 -1 -11 -9 -15 -12 -4 -12 -10 1 -42 14 -34 14 -36 -2 -30 -16 6
-16 5 1 -14 11 -12 15 -21 10 -20 -24 5 -27 -1 -9 -15 17 -13 17 -14 2 -15 -9
0 -19 -4 -23 -9 -3 -6 4 -8 16 -6 12 2 19 1 15 -2 -13 -13 -37 -11 -43 3 -3 8
-9 11 -14 8 -5 -3 -9 0 -9 6 0 6 -4 8 -10 5 -5 -3 -10 0 -10 8 0 10 -7 13 -20
10 -15 -4 -20 0 -20 13 0 14 -2 16 -9 6 -7 -11 -9 -11 -14 2 -4 9 -14 13 -27
11 -12 -2 -23 2 -27 10 -3 8 -16 15 -30 15 -13 0 -31 6 -39 14 -8 8 -23 13
-34 11 -11 -2 -20 1 -20 7 0 6 -3 8 -7 5 -3 -4 -17 0 -31 9 -15 10 -21 11 -17
3 6 -8 4 -10 -6 -3 -15 9 -20 10 -62 12 -16 1 -26 6 -23 10 3 5 -1 9 -9 9 -8
0 -12 -3 -10 -7 2 -4 -2 -7 -10 -7 -8 0 -12 4 -9 9 3 4 -11 8 -30 8 -47 0 -48
0 -70 12 -14 7 -17 7 -11 -2 6 -9 3 -9 -12 -1 -14 7 -24 7 -33 -2 -9 -9 -11
-9 -6 0 9 16 -51 28 -69 13 -10 -8 -15 -8 -21 1 -5 8 -3 9 6 4 9 -5 11 -4 6 4
-6 9 -11 9 -22 0 -9 -7 -14 -8 -14 -1 0 11 -25 10 -36 -1 -4 -3 -15 -2 -25 4
-11 5 -19 7 -19 3 0 -3 -6 -1 -13 5 -8 6 -16 9 -18 7 -11 -11 -69 -13 -69 -3
0 7 -5 6 -10 -3 -9 -14 -11 -13 -14 9 0 5 -5 13 -9 18 -5 4 -8 3 -7 -2 5 -22
-1 -31 -20 -31 -11 0 -20 6 -20 13 0 16 -16 17 -26 1 -5 -7 -2 -8 7 -3 8 5 11
4 6 0 -10 -12 -57 -13 -64 -1 -4 5 0 6 8 1 8 -5 11 -4 6 1 -5 5 -16 9 -25 9
-15 0 -17 13 -17 95 -1 52 -5 102 -9 109 -7 10 -5 12 4 6 9 -5 11 -4 6 3 -4 7
-14 12 -22 12 -8 0 -14 7 -14 16 0 14 -3 14 -15 4 -13 -11 -14 -10 -8 6 6 16
4 17 -9 7 -8 -7 -18 -9 -22 -5 -4 4 -7 2 -6 -3 5 -22 -1 -27 -15 -15 -13 11
-14 10 -9 -4 4 -10 -1 -25 -10 -35 -12 -13 -14 -21 -7 -26 7 -4 8 -13 2 -23
-11 -22 -3 -44 12 -35 7 3 4 -3 -6 -14 -18 -21 -14 -58 6 -46 6 4 7 1 1 -8 -4
-8 -9 -18 -10 -24 -1 -5 -3 -14 -4 -20 -4 -19 0 -36 8 -31 5 3 9 -1 9 -9 0 -8
-4 -12 -8 -10 -9 6 -17 -16 -12 -33 3 -6 9 -10 13 -7 10 6 4 -35 -6 -44 -4 -3
-4 3 0 14 5 14 4 17 -4 9 -13 -13 -2 -46 13 -37 6 3 3 -4 -6 -16 -17 -25 -12
-55 7 -44 6 3 3 -3 -7 -14 -18 -21 -13 -58 7 -46 8 4 8 2 -1 -7 -6 -7 -9 -19
-6 -28 4 -10 2 -13 -5 -8 -8 5 -10 2 -6 -8 3 -9 11 -13 18 -9 6 4 4 -1 -4 -12
-16 -19 -22 -78 -8 -69 4 3 8 2 9 -3 0 -4 2 -16 4 -25 2 -10 -1 -18 -7 -18 -6
0 -7 8 -3 18 5 14 4 15 -7 4 -11 -11 -9 -17 12 -33 14 -12 18 -17 10 -13 -13
7 -13 5 -1 -9 7 -9 17 -14 22 -11 5 3 9 0 9 -7 0 -8 5 -7 17 2 10 8 14 9 10 2
-5 -8 0 -11 13 -10 11 1 20 6 20 12 0 5 5 2 11 -8 9 -15 14 -16 25 -6 11 9 21
9 39 1 18 -8 26 -8 31 0 4 7 3 8 -4 4 -7 -4 -12 -2 -12 3 0 17 18 13 29 -6 7
-12 10 -14 11 -4 0 10 3 11 14 2 10 -9 16 -9 21 -1 5 8 11 7 23 -2 10 -8 13
-8 9 -1 -11 17 15 22 40 6 16 -11 23 -11 29 -2 4 8 3 9 -4 5 -7 -4 -12 -2 -12
3 0 17 18 13 29 -7 7 -11 10 -13 11 -3 0 10 3 11 14 2 10 -9 16 -9 21 -1 5 8
11 7 23 -2 9 -8 13 -8 9 -2 -9 16 18 25 32 11 8 -8 11 -7 11 4 1 10 3 9 11 -4
7 -12 15 -15 22 -9 7 5 20 8 30 7 9 -2 17 2 17 8 0 7 5 4 11 -5 9 -16 12 -17
34 -2 16 10 25 12 30 4 3 -6 11 -8 16 -5 5 4 9 1 9 -6 0 -7 7 -4 16 7 15 19
16 19 9 -1 -5 -16 -4 -17 6 -8 8 8 18 9 30 3 12 -7 20 -6 25 2 4 7 3 8 -4 4
-7 -4 -12 -2 -12 3 0 17 18 13 29 -6 7 -12 10 -14 11 -4 0 10 3 11 14 2 10 -9
16 -9 21 -1 5 8 11 7 23 -2 9 -8 13 -8 9 -2 -9 16 22 27 38 14 6 -5 15 -7 18
-3 4 3 7 0 7 -7 0 -9 5 -7 16 6 15 18 15 18 10 0 -5 -15 -4 -17 7 -8 8 7 17 9
20 5 4 -3 7 0 7 8 1 10 4 9 11 -4 7 -12 15 -15 22 -9 7 5 20 8 30 7 9 -2 17 2
17 8 0 7 5 4 11 -6 9 -15 14 -16 25 -6 11 9 21 9 39 1 18 -8 26 -8 31 0 4 7 3
8 -4 4 -7 -4 -12 -2 -12 3 0 17 18 13 29 -6 7 -12 10 -14 11 -4 0 10 3 11 14
2 10 -9 16 -9 21 -1 5 8 11 7 23 -2 10 -8 13 -8 9 -1 -11 17 15 22 40 6 16
-11 23 -11 29 -2 4 8 3 9 -4 5 -7 -4 -12 -2 -12 3 0 17 18 13 29 -7 7 -11 10
-13 11 -3 0 10 3 11 14 2 10 -9 16 -9 21 -1 5 8 11 7 23 -2 9 -8 13 -8 9 -2
-9 16 18 25 32 11 8 -8 11 -7 11 4 1 10 3 9 11 -4 7 -12 15 -15 22 -9 7 5 20
8 30 7 9 -2 17 2 17 8 0 7 5 4 11 -5 9 -16 12 -17 34 -2 16 10 25 12 30 4 3
-6 11 -8 16 -5 5 4 9 1 9 -6 0 -7 7 -4 16 7 15 19 16 19 9 -1 -5 -16 -4 -17 6
-8 8 8 18 9 30 3 12 -7 20 -6 25 2 4 7 3 8 -4 4 -7 -4 -12 -2 -12 3 0 17 18
13 29 -6 7 -12 10 -14 11 -4 0 10 3 11 14 2 10 -9 16 -9 21 -1 5 8 11 7 23 -2
9 -8 13 -8 9 -2 -9 16 22 27 38 14 6 -5 15 -7 18 -3 4 3 7 0 7 -7 0 -9 5 -7
16 6 15 18 15 18 10 0 -5 -15 -4 -17 7 -8 8 7 17 9 20 5 4 -3 7 0 7 8 1 10 4
9 11 -4 7 -12 15 -15 22 -9 7 5 20 8 30 7 9 -2 17 2 17 8 0 7 5 4 11 -6 8 -14
14 -16 25 -6 7 6 21 9 29 5 8 -3 15 0 15 7 0 7 5 4 11 -6 7 -12 15 -15 22 -9
7 5 20 8 30 7 9 -2 17 2 17 8 0 7 5 4 11 -5 9 -16 12 -17 34 -2 16 10 25 12
30 4 3 -6 11 -8 16 -5 5 4 9 1 9 -6 0 -7 7 -4 16 7 15 19 16 19 9 -1 -5 -16
-4 -17 6 -8 8 8 18 9 30 3 12 -7 20 -6 25 2 4 7 3 8 -4 4 -7 -4 -12 -2 -12 3
0 17 18 13 29 -6 7 -12 10 -14 11 -4 0 10 3 11 14 2 10 -9 16 -9 21 -1 5 8 11
7 23 -2 9 -8 13 -8 9 -2 -9 16 22 27 38 14 6 -5 15 -7 18 -3 4 3 7 0 7 -7 0
-9 5 -7 16 6 15 18 15 18 10 0 -6 -16 -4 -17 9 -6 8 7 15 9 15 5 0 -4 8 -1 17
6 10 8 14 9 10 2 -5 -8 1 -11 18 -9 31 3 38 10 40 39 1 12 7 22 12 22 6 0 15
4 20 8 4 5 1 7 -7 5 -10 -2 -14 3 -12 15 2 10 -3 26 -10 35 -10 12 -10 14 0 8
6 -4 12 -3 12 3 0 5 -5 13 -10 16 -8 5 -8 11 0 20 7 9 8 15 1 19 -7 5 -6 15 1
32 10 20 9 27 -3 35 -12 8 -6 13 13 10 4 0 5 6 2 14 -4 8 -10 12 -15 9 -5 -3
-6 2 -3 10 3 9 10 14 14 11 5 -3 5 9 -1 27 -12 43 -12 43 8 27 15 -13 15 -12
3 8 -8 12 -18 20 -22 17 -4 -3 -5 2 -2 10 3 9 10 14 14 11 5 -3 12 0 16 6 4 8
3 9 -4 5 -7 -4 -12 -2 -12 4 0 6 -4 9 -10 5 -5 -3 -5 8 2 26 8 25 8 33 -3 40
-13 8 -6 13 13 10 4 0 5 6 2 14 -4 8 -10 12 -15 9 -5 -3 -6 2 -3 10 3 9 10 14
14 11 5 -3 5 9 -1 27 -12 43 -12 43 8 27 15 -13 15 -12 3 8 -8 12 -18 20 -22
17 -4 -3 -5 2 -2 10 3 9 10 14 14 11 5 -3 12 0 16 6 4 8 3 9 -4 5 -7 -4 -12
-2 -12 4 0 6 -4 9 -10 5 -5 -3 -5 8 2 26 8 25 8 33 -3 40 -13 8 -6 13 13 10 4
0 5 6 2 14 -4 8 -10 12 -15 9 -5 -3 -6 2 -3 10 3 9 10 14 14 11 5 -3 5 9 0 26
-5 18 -7 43 -4 56 4 14 2 23 -6 23 -6 0 -8 5 -5 10 4 6 11 8 16 5 5 -3 6 1 3
9 -3 9 -10 13 -15 10 -5 -3 -6 2 -3 10 3 9 10 14 14 11 5 -3 5 9 -1 27 -12 43
-12 43 8 27 15 -13 15 -12 3 8 -8 12 -18 20 -22 17 -4 -3 -5 2 -2 10 3 9 10
14 14 11 5 -3 12 0 16 6 4 8 3 9 -4 5 -7 -4 -12 -2 -12 4 0 6 -4 9 -10 5 -5
-3 -5 8 2 26 8 25 8 33 -3 40 -13 8 -6 13 13 10 4 0 5 6 2 14 -4 8 -10 12 -15
9 -5 -3 -6 2 -3 10 3 9 10 14 14 11 5 -3 5 9 -1 27 -12 43 -12 43 8 27 15 -13
15 -12 3 8 -8 12 -18 20 -22 17 -4 -3 -5 2 -2 10 3 9 10 14 14 11 5 -3 12 0
16 6 4 8 3 9 -4 5 -7 -4 -12 -2 -12 4 0 6 -4 9 -10 5 -5 -3 -5 8 2 26 8 25 8
33 -3 40 -13 8 -6 13 13 10 4 0 5 6 2 14 -4 8 -10 12 -15 9 -5 -3 -6 2 -3 10
3 9 10 14 14 11 5 -3 5 9 0 26 -5 18 -7 43 -4 56 4 14 2 23 -6 23 -6 0 -8 5
-5 10 4 6 11 8 16 5 5 -3 6 1 3 9 -3 9 -10 13 -15 10 -5 -3 -6 2 -3 10 3 9 10
14 14 11 5 -3 5 9 -1 27 -12 43 -12 43 8 27 15 -13 15 -12 3 8 -8 12 -18 20
-22 17 -4 -3 -5 2 -2 10 3 9 10 14 14 11 5 -3 12 0 16 6 4 8 3 9 -4 5 -7 -4
-12 -2 -12 4 0 6 -4 9 -10 5 -5 -3 -5 8 2 26 8 25 8 33 -3 40 -13 8 -5 14 16
9 5 -1 1 8 -9 19 -17 19 -17 19 6 15 l23 -5 -22 13 c-16 10 -20 17 -13 28 5 8
10 22 10 30 0 13 -1 13 -11 0 -9 -12 -10 -11 -6 8 3 14 1 20 -6 15 -7 -4 -8 0
-3 12 5 15 4 16 -9 5 -10 -8 -15 -9 -15 -1 0 6 -5 11 -11 11 -5 0 -8 -4 -5 -9
4 -5 -2 -8 -11 -6 -10 2 -18 4 -18 5 0 1 -8 3 -17 5 -10 2 -18 -2 -18 -8 0 -8
-3 -7 -9 2 -6 10 -10 10 -16 1 -5 -8 -12 -7 -26 6 -17 16 -19 16 -25 0 -6 -15
-7 -15 -19 0 -11 16 -13 16 -23 -2 -7 -12 -12 -14 -12 -5 0 10 -3 11 -14 2
-11 -9 -16 -9 -22 0 -5 8 -3 9 6 4 9 -5 11 -4 6 4 -6 9 -11 9 -21 1 -10 -8
-15 -8 -20 0 -5 8 -13 6 -25 -5 -14 -12 -20 -13 -26 -4 -5 8 -3 10 6 4 9 -5
11 -4 6 4 -6 9 -11 9 -21 1 -10 -8 -15 -8 -20 0 -5 8 -11 8 -21 -1 -8 -6 -14
-8 -14 -4 0 4 -8 1 -17 -6 -11 -10 -14 -10 -9 -1 4 6 3 12 -1 12 -5 0 -15 -6
-22 -12 -11 -11 -12 -10 -6 0 8 16 -26 13 -37 -3 -5 -6 -8 -5 -8 4 0 10 -3 11
-14 2 -10 -8 -16 -9 -21 -1 -3 5 -11 10 -16 10 -6 0 -7 -6 -3 -12 6 -10 5 -10
-8 -1 -8 7 -17 10 -21 7 -3 -3 -16 0 -29 7 -22 12 -22 11 -8 -6 14 -17 14 -17
-6 -7 -14 8 -24 8 -31 1 -8 -8 -13 -7 -18 2 -6 8 -4 10 5 4 9 -6 11 -4 5 5 -6
10 -11 9 -22 -5 -8 -12 -13 -14 -13 -6 0 10 -3 11 -14 2 -11 -9 -16 -9 -22 0
-5 8 -3 9 6 4 9 -5 11 -4 6 4 -6 8 -12 9 -20 2 -7 -6 -16 -8 -20 -4 -10 10
-37 13 -31 3 3 -5 1 -11 -5 -15 -5 -3 -10 -2 -10 4 0 10 -25 9 -36 -2 -4 -4
-13 -2 -21 4 -9 8 -13 8 -13 0 0 -6 -13 -9 -30 -7 -18 2 -27 -1 -23 -7 4 -6 0
-8 -9 -4 -9 3 -20 1 -26 -5 -6 -6 -21 -11 -34 -12 -13 -1 -22 -7 -20 -15 1 -7
-2 -10 -8 -6 -6 4 -17 1 -25 -5 -8 -6 -20 -8 -26 -4 -8 5 -9 3 -4 -6 6 -10 4
-12 -8 -7 -11 4 -14 2 -11 -7 3 -8 0 -17 -7 -22 -8 -5 -10 -3 -4 5 5 9 1 9
-16 -1 -39 -21 -59 -40 -53 -49 3 -5 -3 -6 -12 -2 -12 4 -15 3 -10 -5 4 -7 1
-12 -9 -12 -9 0 -13 -4 -10 -10 3 -5 1 -10 -5 -10 -6 0 -8 -5 -5 -10 4 -6 3
-10 -2 -9 -4 1 -17 1 -28 0 -17 -1 -18 -3 -5 -11 13 -8 12 -10 -3 -10 -10 0
-15 -5 -12 -10 7 -12 -31 -8 -42 5 -5 4 -1 4 7 0 8 -5 4 3 -10 18 -14 15 -31
27 -38 27 -7 0 -10 5 -7 10 3 6 -1 10 -9 10 -9 0 -16 7 -16 16 0 8 -4 12 -10
9 -5 -3 -10 -3 -10 2 0 4 -14 14 -31 22 -20 9 -27 16 -19 21 7 4 0 9 -18 13
-16 3 -36 12 -43 20 -8 7 -19 12 -26 10 -6 -2 -15 1 -19 8 -5 8 -3 9 6 4 9 -5
11 -4 6 4 -4 6 -11 9 -16 6 -5 -3 -20 0 -32 7 -13 6 -31 11 -42 9 -11 -1 -16
2 -12 8 4 6 2 11 -3 11 -6 0 -11 -5 -11 -12 0 -6 -9 -3 -20 7 -13 12 -20 14
-20 5 0 -10 -3 -10 -15 0 -9 7 -18 10 -22 6 -3 -3 0 -6 7 -6 7 0 10 -3 7 -6
-4 -4 -13 -1 -22 6 -12 10 -15 10 -15 -1 0 -11 -2 -11 -10 1 -9 13 -11 13 -20
0 -8 -12 -10 -12 -10 -1 0 10 -3 11 -14 2 -11 -9 -16 -9 -22 0 -5 8 -3 9 6 4
9 -5 11 -4 6 4 -6 9 -11 9 -21 1 -10 -8 -15 -8 -20 0 -5 8 -13 6 -25 -5 -14
-12 -20 -13 -26 -4 -5 8 -3 10 6 4 9 -5 11 -4 6 4 -6 9 -11 9 -21 1 -10 -8
-15 -8 -20 0 -5 8 -11 8 -21 -1 -8 -6 -14 -8 -14 -4 0 4 -8 1 -17 -6 -11 -10
-14 -10 -9 -1 4 6 3 12 -1 12 -5 0 -15 -6 -22 -12 -11 -11 -12 -10 -6 0 8 16
-26 13 -37 -3 -5 -6 -8 -5 -8 4 0 10 -3 11 -14 2 -10 -8 -16 -9 -21 -1 -3 5
-11 10 -16 10 -6 0 -7 -6 -3 -12 6 -10 5 -10 -8 -1 -8 7 -17 10 -21 7 -3 -3
-16 0 -29 7 -22 12 -22 11 -8 -6 14 -17 14 -17 -6 -7 -14 8 -24 8 -31 1 -8 -8
-13 -7 -18 2 -6 8 -4 10 5 4 9 -6 11 -4 5 5 -6 10 -11 9 -22 -5 -8 -12 -13
-14 -13 -6 0 10 -3 11 -14 2 -11 -9 -16 -9 -22 0 -5 8 -3 9 6 4 9 -5 11 -4 6
4 -6 9 -11 9 -21 1 -10 -8 -15 -8 -20 0 -5 8 -13 6 -25 -5 -14 -12 -20 -13
-26 -4 -5 8 -3 10 6 4 9 -5 11 -4 6 4 -6 9 -11 9 -21 1 -10 -8 -15 -8 -20 0
-5 8 -13 6 -25 -5 -14 -12 -20 -13 -26 -4 -5 8 -3 10 6 4 9 -5 11 -4 6 4 -6 8
-12 9 -20 2 -7 -6 -16 -8 -20 -4 -10 10 -37 13 -31 3z m1760 -134 c14 6 16 4
11 -7 -4 -8 0 -5 8 5 9 11 16 15 16 10 0 -13 31 -14 47 -2 7 6 15 3 22 -9 6
-10 11 -12 11 -5 0 6 5 12 11 12 5 0 7 -6 4 -12 -4 -7 1 -4 9 6 9 11 16 15 16
10 0 -13 31 -14 47 -2 7 6 15 3 22 -9 6 -10 11 -12 11 -5 0 6 5 12 11 12 5 0
7 -6 4 -12 -4 -7 1 -4 9 6 9 11 16 15 16 10 0 -13 31 -14 47 -2 7 6 15 3 22
-9 6 -10 11 -12 11 -5 0 6 5 12 11 12 5 0 7 -6 4 -12 -4 -7 1 -4 9 6 9 11 16
15 16 10 0 -13 31 -14 47 -2 7 6 15 3 22 -9 6 -10 11 -12 11 -5 0 6 5 12 11
12 5 0 7 -6 4 -12 -4 -7 1 -4 9 6 9 11 16 15 16 9 0 -6 10 -9 23 -9 12 1 28
-3 36 -8 11 -8 13 -8 8 0 -4 7 0 15 9 18 8 3 12 2 9 -4 -3 -6 1 -10 9 -10 8 0
18 5 21 10 5 8 11 8 20 0 10 -8 15 -8 20 0 15 24 33 -11 30 -60 -1 -28 2 -50
7 -50 5 0 6 -5 2 -12 -10 -16 -11 -388 -1 -388 5 0 5 -5 1 -11 -10 -17 -11
-52 -2 -71 5 -10 5 -18 1 -18 -4 0 -8 -31 -8 -70 0 -38 4 -70 8 -70 5 0 5 -5
1 -12 -10 -16 -11 -388 -1 -388 5 0 5 -5 1 -11 -10 -17 -11 -52 -2 -71 5 -11
5 -18 -2 -18 -5 0 -8 -10 -6 -22 4 -29 -23 -51 -42 -35 -10 8 -16 7 -23 -4 -7
-12 -13 -7 -11 12 1 3 -5 6 -13 6 -7 0 -11 -5 -9 -11 5 -12 -104 -14 -123 -3
-7 4 -14 4 -17 -1 -2 -4 -23 -8 -45 -7 -23 1 -41 -3 -41 -8 0 -4 -6 -5 -12 -1
-11 7 -54 10 -60 4 -2 -1 -15 -4 -31 -6 -19 -2 -26 1 -21 9 3 7 -1 4 -9 -5
-13 -16 -15 -16 -30 0 -10 9 -17 11 -17 5 0 -6 6 -13 13 -16 6 -2 9 -8 5 -12
-4 -4 -14 -2 -22 4 -9 7 -17 8 -20 2 -3 -5 -14 -8 -24 -7 -9 2 -29 0 -44 -5
-17 -5 -30 -3 -34 3 -5 7 -12 4 -21 -7 -9 -14 -13 -15 -13 -4 0 11 -2 11 -9 1
-4 -7 -27 -14 -50 -15 -28 -1 -40 -5 -37 -13 3 -9 -3 -10 -25 -4 -16 5 -27 5
-24 0 3 -5 1 -11 -5 -15 -5 -3 -10 -1 -10 6 0 9 -4 9 -15 -1 -8 -6 -19 -9 -25
-5 -9 5 -14 -6 -12 -26 1 -3 -10 -4 -24 -1 -15 3 -33 -3 -47 -14 -18 -16 -19
-16 -8 -1 17 21 8 22 -13 1 -9 -8 -26 -17 -38 -19 -12 -3 -25 -10 -30 -17 -4
-7 -8 -9 -8 -5 0 5 -7 1 -16 -7 -8 -9 -20 -13 -26 -10 -7 5 -8 2 -3 -6 6 -10
4 -12 -8 -7 -9 3 -19 1 -23 -5 -4 -6 -3 -8 4 -4 6 3 13 3 16 -2 2 -4 -6 -8
-19 -8 -14 0 -22 2 -20 5 3 2 0 10 -7 18 -9 11 -7 12 8 6 16 -5 17 -4 8 8 -15
18 -15 69 0 69 8 0 8 3 0 8 -6 4 -13 15 -17 24 -4 13 -2 16 11 11 14 -5 15 -3
5 8 -15 15 -18 33 -5 25 9 -5 9 19 -1 44 -14 40 -16 51 -8 45 5 -3 12 -1 16 5
3 5 1 10 -6 10 -7 0 -9 3 -6 7 4 3 1 13 -6 21 -10 13 -9 15 7 9 16 -6 17 -5 6
8 -10 12 -10 15 1 15 9 0 10 3 3 8 -6 4 -13 15 -17 24 -4 13 -2 16 11 11 14
-5 15 -3 5 8 -15 15 -18 33 -5 25 9 -6 8 19 -2 47 -14 38 -15 48 -7 42 5 -3
12 -1 16 5 3 5 1 10 -6 10 -7 0 -9 3 -6 7 4 3 1 13 -6 21 -10 13 -9 15 7 9 16
-6 17 -5 6 8 -10 12 -10 15 1 15 9 0 10 3 3 8 -6 4 -13 15 -17 24 -4 13 -2 16
11 11 14 -5 15 -3 5 8 -15 15 -18 33 -5 25 9 -6 8 19 -2 47 -14 38 -15 48 -7
42 5 -3 12 -1 16 5 3 5 1 10 -6 10 -7 0 -9 3 -6 7 4 3 1 13 -6 21 -10 13 -9
15 7 9 16 -6 17 -5 6 8 -10 12 -10 15 1 15 9 0 10 3 3 8 -6 4 -13 15 -17 24
-4 13 -2 16 11 11 14 -5 15 -3 5 8 -15 15 -18 33 -5 25 10 -6 8 19 -3 49 -14
38 -15 46 -6 40 5 -3 12 -1 16 5 3 5 1 10 -6 10 -7 0 -9 3 -6 7 4 3 1 13 -6
21 -10 13 -9 15 7 9 16 -6 17 -5 6 8 -10 12 -10 15 1 15 9 0 10 3 3 8 -6 4
-13 15 -17 24 -4 13 -2 16 11 11 14 -5 15 -3 5 8 -15 15 -18 33 -5 25 10 -6 8
21 -3 47 -4 10 -2 24 6 34 10 12 10 15 2 9 -7 -4 -13 -3 -13 3 0 5 4 12 9 15
5 3 7 16 3 28 -3 14 -2 19 6 14 8 -5 12 1 13 16 0 13 3 17 6 10 2 -6 9 -10 13
-7 5 3 6 13 3 22 -4 10 -2 14 4 10 6 -4 20 4 31 18 11 13 23 21 27 17 3 -4 5
0 3 8 -2 8 3 14 10 12 8 -1 11 2 8 7 -3 5 2 15 11 22 14 12 16 12 9 0 -6 -9
-5 -12 5 -9 8 3 13 12 11 21 -2 12 2 15 14 10 13 -5 15 -3 9 8 -4 8 -4 11 0 6
5 -4 19 0 32 8 13 9 23 12 23 8 0 -5 5 0 11 10 6 9 14 15 20 12 5 -4 9 -3 9 2
0 7 18 11 73 13 9 1 17 5 17 10 0 5 7 7 15 4 9 -4 15 0 15 7 0 11 2 11 8 1 5
-8 16 -10 27 -6z m-1828 -181 c0 -8 -4 -12 -9 -9 -5 3 -6 10 -3 15 9 13 12 11
12 -6z m-2 -515 c3 -5 1 -10 -4 -10 -6 0 -11 5 -11 10 0 6 2 10 4 10 3 0 8 -4
11 -10z m0 -520 c3 -5 1 -10 -4 -10 -6 0 -11 5 -11 10 0 6 2 10 4 10 3 0 8 -4
11 -10z m197 -224 c5 -8 8 -8 8 0 0 11 64 13 75 2 4 -4 17 -3 29 1 31 11 61 8
79 -7 13 -11 17 -10 26 5 10 17 10 17 11 -1 0 -16 2 -17 17 -5 9 8 14 9 10 3
-4 -8 6 -10 33 -8 26 2 40 -1 40 -9 0 -8 3 -8 8 -2 9 12 32 18 32 7 0 -4 28
-8 63 -9 82 -2 79 -1 71 -15 -5 -10 -4 -10 6 -1 13 12 43 7 35 -6 -2 -4 2 -8
10 -8 8 0 15 5 15 10 0 6 8 3 18 -6 12 -11 22 -13 32 -7 8 5 20 10 25 10 6 0
3 -5 -5 -10 -13 -8 -12 -10 5 -11 35 -3 40 -4 54 -13 9 -6 12 -5 8 1 -3 5 0
10 8 10 8 0 12 -4 9 -9 -3 -4 2 -8 11 -8 9 0 13 -5 9 -11 -4 -8 0 -8 15 0 16
9 21 9 21 0 0 -6 7 -9 15 -5 14 5 20 -5 16 -27 -1 -5 6 -4 16 1 13 8 21 6 31
-6 7 -10 11 -11 7 -5 -4 9 -1 11 9 7 9 -3 16 -12 16 -20 0 -8 5 -14 11 -14 5
0 7 6 3 13 -6 9 -5 9 8 0 8 -7 18 -10 22 -6 4 4 4 -1 0 -11 -5 -13 -4 -17 4
-12 6 3 13 2 17 -4 4 -6 12 -7 18 -4 7 4 9 4 5 -1 -4 -4 3 -16 15 -26 20 -18
20 -19 2 -12 -11 3 -27 11 -35 17 -12 8 -13 8 -2 -4 17 -20 15 -35 -3 -20 -12
10 -15 10 -16 -1 0 -11 -2 -11 -6 -1 -4 9 -8 10 -18 2 -10 -8 -15 -8 -21 1 -5
8 -3 9 6 4 9 -5 11 -4 6 4 -6 8 -12 9 -20 2 -7 -6 -16 -8 -19 -4 -4 3 -7 0 -7
-7 0 -9 -5 -8 -13 5 -11 14 -16 15 -22 5 -6 -9 -4 -11 5 -5 9 5 11 4 6 -4 -6
-9 -11 -9 -22 0 -8 6 -14 8 -14 4 0 -4 -6 -2 -14 4 -10 8 -16 9 -21 1 -3 -6
-11 -8 -16 -5 -5 4 -9 0 -9 -7 0 -10 -2 -10 -9 0 -11 17 -21 17 -32 0 -7 -10
-9 -10 -9 0 0 9 -5 10 -19 2 -14 -7 -22 -7 -27 1 -4 8 -9 7 -15 -2 -7 -11 -9
-9 -9 5 0 20 0 20 -16 0 -15 -19 -16 -19 -9 0 6 19 5 19 -13 3 -17 -16 -20
-16 -32 -2 -10 12 -16 13 -26 4 -8 -6 -14 -8 -14 -3 0 5 -5 2 -10 -6 -6 -10
-10 -11 -10 -2 0 14 -21 12 -32 -3 -5 -6 -8 -5 -8 4 0 10 -3 11 -14 2 -11 -9
-16 -9 -22 0 -5 8 -3 9 6 4 9 -5 11 -4 6 4 -6 8 -12 9 -20 2 -7 -6 -16 -8 -19
-4 -4 3 -7 0 -7 -7 0 -9 -5 -8 -13 5 -11 14 -16 15 -22 5 -6 -9 -4 -11 5 -5 9
5 11 4 6 -4 -6 -9 -11 -9 -22 0 -8 6 -14 8 -14 4 0 -4 -6 -2 -14 4 -10 8 -16
9 -21 1 -3 -6 -11 -8 -16 -5 -5 4 -9 0 -9 -7 0 -10 -2 -10 -9 0 -11 17 -21 17
-32 0 -7 -10 -9 -10 -9 0 0 9 -5 10 -19 2 -14 -7 -22 -7 -27 1 -4 8 -9 7 -15
-2 -7 -11 -9 -9 -9 5 0 20 0 20 -16 0 -15 -19 -16 -19 -9 0 6 19 5 19 -13 3
-17 -16 -20 -16 -32 -2 -10 12 -16 13 -26 4 -8 -6 -14 -8 -14 -3 0 5 -5 2 -10
-6 -6 -10 -10 -11 -10 -3 0 15 -21 13 -32 -2 -5 -6 -8 -4 -8 5 0 13 -1 13 -10
0 -6 -10 -10 -11 -10 -2 0 6 -6 12 -13 12 -9 0 -12 29 -11 118 1 64 2 117 3
118 11 6 68 -2 73 -10z m1945 -1 c0 -8 -5 -11 -10 -8 -6 3 -7 1 -3 -6 6 -9 11
-9 21 -1 7 6 24 9 38 6 14 -2 36 2 51 9 14 8 28 10 31 5 3 -4 -1 -11 -7 -13
-10 -4 -10 -6 0 -6 7 -1 15 6 19 15 5 13 7 13 14 2 7 -10 9 -10 9 2 0 13 1 13
10 0 9 -13 10 -13 10 0 0 13 1 13 10 0 8 -12 10 -12 10 -1 0 11 3 11 17 0 9
-8 14 -9 10 -3 -7 12 76 14 89 2 4 -4 14 -3 21 4 11 9 17 9 24 -3 7 -12 9 -12
9 1 1 13 2 13 9 0 11 -19 10 -230 -1 -230 -4 0 -11 0 -14 1 -4 0 -11 -5 -15
-13 -7 -10 -9 -10 -9 0 0 9 -5 10 -19 2 -14 -7 -22 -7 -27 1 -4 8 -9 7 -15 -2
-7 -11 -9 -9 -9 5 0 20 0 20 -16 0 -15 -19 -16 -19 -9 0 6 19 5 19 -13 3 -17
-16 -20 -16 -32 -2 -10 12 -16 13 -26 4 -8 -6 -14 -8 -14 -3 0 5 -5 2 -10 -6
-6 -10 -10 -11 -10 -3 0 15 -21 13 -32 -2 -5 -6 -8 -5 -8 4 0 10 -3 11 -14 2
-11 -9 -16 -9 -22 0 -5 8 -3 9 6 4 9 -5 11 -4 6 4 -6 8 -12 9 -20 2 -7 -6 -16
-8 -19 -4 -4 3 -7 0 -7 -7 0 -9 -5 -8 -13 5 -11 14 -16 15 -22 5 -6 -9 -4 -11
5 -5 9 5 11 4 6 -4 -6 -9 -11 -9 -22 0 -8 6 -14 8 -14 3 0 -4 -5 -3 -12 4 -9
9 -16 8 -29 -4 -13 -12 -19 -12 -25 -3 -5 8 -3 10 6 4 9 -5 11 -4 6 4 -6 8
-12 9 -20 2 -7 -6 -16 -8 -19 -4 -4 3 -7 0 -7 -7 0 -9 -5 -8 -13 5 -11 14 -16
15 -22 5 -6 -9 -4 -11 5 -5 9 5 11 4 6 -4 -6 -9 -11 -9 -22 0 -8 6 -14 8 -14
4 0 -4 -6 -2 -14 4 -10 8 -16 9 -21 1 -3 -6 -11 -8 -16 -5 -5 4 -9 0 -9 -7 0
-10 -2 -10 -9 0 -11 17 -21 17 -32 0 -7 -10 -9 -10 -9 0 0 9 -5 10 -19 2 -14
-7 -22 -7 -27 1 -4 8 -9 7 -15 -2 -7 -11 -9 -9 -9 5 0 20 0 20 -16 0 -15 -19
-16 -19 -9 0 6 19 5 19 -13 3 -14 -13 -21 -14 -30 -5 -12 12 -51 19 -50 9 2
-18 -3 -24 -11 -12 -5 8 -14 10 -22 5 -20 -12 -49 -12 -56 -1 -4 6 -1 7 7 2 9
-5 11 -4 6 4 -6 9 -11 9 -22 0 -8 -6 -14 -8 -14 -3 0 5 -5 2 -10 -6 -5 -8 -10
-10 -10 -4 0 7 -7 14 -14 17 -9 4 -13 1 -10 -6 3 -8 -4 -13 -16 -13 -13 0 -16
4 -10 10 6 6 10 15 10 20 0 6 -5 5 -12 -2 -20 -20 -30 -14 -10 6 9 11 20 17
25 15 4 -2 7 1 7 7 0 6 4 8 10 5 5 -3 22 6 36 22 14 15 23 22 19 16 -3 -7 -2
-13 3 -13 6 0 13 7 16 16 3 9 12 14 20 11 8 -3 22 3 31 13 9 10 23 16 30 14 7
-3 16 0 20 6 6 9 10 9 16 -1 6 -10 9 -11 9 -1 0 6 9 12 21 12 11 0 18 3 16 8
-3 4 10 8 29 9 23 1 32 -2 28 -9 -4 -7 -2 -8 5 -4 6 4 9 11 6 16 -8 13 21 20
33 8 8 -8 13 -7 17 4 4 10 15 13 37 10 24 -4 29 -2 23 9 -8 12 -6 12 8 0 14
-11 17 -11 18 0 0 12 1 12 6 0 4 -9 7 -10 12 -2 4 6 24 12 45 13 20 1 39 6 43
11 3 5 9 4 13 -4 7 -10 12 -10 23 -1 7 7 16 10 19 7 3 -3 11 1 18 10 15 19 17
19 17 0z m-2142 -95 c3 -5 1 -10 -4 -10 -6 0 -11 5 -11 10 0 6 2 10 4 10 3 0
8 -4 11 -10z m0 -120 c3 -5 1 -10 -4 -10 -6 0 -11 5 -11 10 0 6 2 10 4 10 3 0
8 -4 11 -10z"/>
<path d="M2347 2463 c-3 -5 -24 -8 -45 -6 -31 3 -42 -1 -62 -24 -15 -16 -17
-22 -6 -13 18 14 19 14 7 -7 -6 -13 -9 -33 -6 -46 7 -25 11 -26 115 -31 30 -1
61 -5 68 -10 8 -5 12 -1 12 11 0 15 2 15 9 3 6 -8 7 -18 4 -24 -3 -5 -1 -6 6
-2 6 4 9 11 6 16 -3 4 10 6 29 3 19 -2 37 1 41 7 5 8 10 8 20 0 7 -6 30 -9 51
-7 22 3 47 0 57 -5 13 -7 17 -5 17 9 0 15 2 15 9 3 6 -8 7 -18 4 -24 -3 -5 -1
-6 6 -2 6 4 9 11 7 15 -3 4 1 8 9 8 8 0 12 -4 9 -8 -2 -4 1 -11 7 -15 8 -5 9
-3 4 6 -6 10 -4 12 8 7 9 -3 23 1 32 9 8 9 15 12 16 7 1 -4 4 3 8 17 4 14 13
24 20 22 14 -3 8 11 -18 42 -11 14 -12 17 -2 11 10 -5 12 -4 7 3 -4 7 -16 12
-27 12 -11 0 -17 4 -14 10 4 7 -3 7 -19 0 -17 -6 -26 -6 -26 1 0 6 -7 6 -20
-1 -11 -6 -20 -7 -20 -3 0 9 -84 8 -99 -2 -6 -3 -11 -1 -11 5 0 6 -5 8 -12 3
-19 -11 -37 -12 -44 -2 -3 6 -11 5 -20 -2 -11 -9 -14 -9 -14 0 0 9 -5 9 -20 1
-11 -6 -20 -7 -20 -2 0 10 -42 8 -59 -2 -5 -3 -11 -1 -13 6 -3 8 -6 9 -11 1z
m403 -123 c0 -5 -2 -10 -4 -10 -3 0 -8 5 -11 10 -3 6 -1 10 4 10 6 0 11 -4 11
-10z"/>
<path d="M2276 2332 c-3 -5 1 -9 9 -9 8 0 12 4 9 9 -3 4 -7 8 -9 8 -2 0 -6 -4
-9 -8z"/>
<path d="M2531 2324 c0 -11 3 -14 6 -6 3 7 2 16 -1 19 -3 4 -6 -2 -5 -13z"/>
<path d="M2360 2320 c-9 -6 -10 -10 -3 -10 6 0 15 5 18 10 8 12 4 12 -15 0z"/>
<path d="M2600 2320 c-9 -6 -10 -10 -3 -10 6 0 15 5 18 10 8 12 4 12 -15 0z"/>
<path d="M2303 2084 c4 -17 0 -20 -19 -16 -16 3 -24 0 -24 -9 0 -11 -2 -11
-10 1 -10 15 -11 14 -15 -28 -1 -12 -5 -25 -9 -29 -3 -3 3 -13 14 -20 11 -8
18 -18 15 -23 -3 -4 13 -7 35 -6 22 0 42 -3 44 -9 3 -7 5 -7 5 0 1 8 249 12
281 5 26 -6 130 -3 130 3 0 5 5 5 10 2 6 -3 10 -1 10 5 0 6 5 8 10 5 6 -3 10
0 10 9 0 8 6 17 13 19 9 4 8 8 -3 16 -11 8 -11 11 -2 11 9 0 10 5 3 19 -6 10
-7 22 -3 26 4 5 1 5 -6 1 -8 -5 -19 -1 -28 10 -9 11 -13 13 -9 7 3 -7 1 -13
-4 -13 -6 0 -11 5 -11 12 0 6 -7 3 -16 -8 -8 -10 -13 -14 -10 -8 3 7 -1 14 -8
17 -8 3 -17 1 -20 -6 -5 -9 -7 -9 -12 1 -3 6 -10 12 -15 12 -6 0 -7 -5 -3 -11
4 -8 0 -8 -15 0 -12 7 -26 9 -32 6 -5 -4 -17 -1 -25 6 -12 10 -15 10 -12 -1 2
-7 -3 -15 -11 -18 -8 -2 -11 0 -8 5 4 6 -14 9 -46 7 -32 -2 -55 2 -60 9 -6 8
-7 6 -3 -5 3 -10 1 -18 -4 -18 -6 0 -10 5 -10 10 0 6 -5 10 -11 10 -5 0 -8 -4
-5 -8 9 -15 -95 -7 -105 8 -9 12 -10 11 -6 -6z"/>
<path d="M2286 1699 c5 -9 -2 -10 -22 -6 -16 3 -23 4 -16 1 6 -3 12 -10 12
-15 0 -6 -4 -8 -9 -5 -11 7 -23 -22 -15 -35 3 -5 0 -9 -7 -9 -8 0 -9 -3 0 -13
6 -8 7 -17 3 -21 -4 -4 0 -6 8 -4 8 2 14 -2 13 -9 -2 -8 4 -10 15 -6 15 6 16
5 2 -13 -13 -17 -13 -18 0 -8 8 7 34 14 58 16 35 3 41 1 37 -12 -3 -9 1 -7 10
4 8 11 15 14 15 8 0 -7 7 -12 15 -12 8 0 15 5 15 10 0 8 6 8 17 1 13 -7 23 -5
37 7 11 9 16 12 13 6 -4 -7 0 -15 9 -18 8 -3 13 -2 10 2 -3 5 1 9 8 9 8 0 12
-7 9 -16 -4 -14 -3 -14 9 1 9 11 19 14 28 8 10 -6 21 -3 34 8 11 9 16 12 13 6
-4 -7 0 -15 9 -18 8 -3 13 -2 10 2 -3 5 1 9 8 9 8 0 12 -7 9 -16 -4 -13 -2
-13 10 1 10 13 16 15 25 6 7 -7 12 -8 12 -2 0 5 17 8 39 6 24 -2 42 1 46 9 6
8 4 10 -5 4 -9 -5 -11 -4 -6 4 6 9 11 9 22 0 9 -7 14 -8 13 -3 -4 22 2 35 14
29 6 -4 4 0 -6 8 -12 10 -15 17 -7 22 8 5 8 11 -1 21 -6 7 -16 11 -23 7 -6 -4
-6 -1 2 9 10 13 9 15 -10 14 -13 -1 -30 1 -39 5 -8 4 -21 4 -29 -1 -7 -4 -24
-4 -37 1 -16 6 -22 5 -18 -1 8 -12 3 -12 -28 -1 -13 5 -30 6 -37 1 -7 -5 -24
-4 -37 1 -16 6 -22 5 -18 -1 8 -12 3 -12 -28 -1 -13 5 -30 6 -37 1 -7 -5 -24
-4 -37 1 -16 6 -22 5 -18 -1 8 -12 3 -12 -28 -1 -13 5 -30 6 -37 1 -7 -5 -24
-4 -37 1 -17 6 -22 6 -17 -2z"/>
<path d="M2826 1382 c-3 -5 1 -9 9 -9 8 0 12 4 9 9 -3 4 -7 8 -9 8 -2 0 -6 -4
-9 -8z"/>
<path d="M815 1220 c-3 -6 1 -7 9 -4 18 7 21 14 7 14 -6 0 -13 -4 -16 -10z"/>
<path d="M1155 1200 c-3 -5 -1 -10 4 -10 6 0 11 5 11 10 0 6 -2 10 -4 10 -3 0
-8 -4 -11 -10z"/>
<path d="M899 2459 c-6 -3 -23 -5 -38 -4 -22 1 -28 -2 -23 -13 3 -9 1 -13 -5
-9 -6 4 -10 -8 -11 -28 -1 -36 22 -70 40 -59 7 4 8 2 4 -4 -4 -7 -2 -12 4 -12
6 0 8 -5 4 -12 -4 -7 -3 -8 4 -4 7 4 12 14 12 22 0 8 5 12 10 9 6 -4 8 -10 6
-14 -3 -4 1 -8 9 -8 8 0 15 7 15 14 0 8 5 11 10 8 6 -4 8 -10 5 -15 -3 -5 0
-12 6 -15 6 -4 13 2 16 14 3 11 9 18 14 15 5 -3 7 -9 4 -14 -3 -5 0 -12 6 -15
6 -4 13 2 16 14 3 11 9 18 14 15 5 -3 7 -9 4 -14 -3 -5 0 -12 6 -15 6 -4 13 2
16 14 3 11 9 18 14 15 5 -3 7 -9 4 -14 -3 -5 0 -12 6 -15 6 -4 13 2 16 14 3
11 9 18 14 15 5 -3 7 -9 4 -14 -3 -5 0 -12 6 -15 6 -4 13 2 16 14 3 11 9 18
14 15 5 -3 7 -9 4 -14 -3 -5 0 -12 6 -15 6 -4 13 2 16 14 3 11 9 18 14 15 5
-3 7 -9 4 -14 -3 -5 0 -12 6 -15 6 -4 13 2 16 14 3 11 9 18 14 15 5 -3 7 -9 4
-14 -3 -5 -1 -11 5 -15 6 -3 14 4 19 17 9 22 12 21 15 -4 1 -13 34 -20 41 -8
3 5 -4 7 -15 5 -11 -2 -18 0 -15 6 4 5 11 7 16 4 5 -4 9 0 9 7 0 10 2 10 9 -1
11 -18 41 -24 38 -8 -1 7 6 12 15 12 10 0 18 3 19 7 0 4 4 21 9 38 7 24 6 32
-6 37 -8 3 -13 11 -11 18 4 8 -5 11 -24 10 -16 -1 -29 3 -29 9 0 7 -4 6 -11
-1 -6 -6 -23 -8 -43 -3 -19 4 -41 3 -50 -2 -11 -6 -16 -5 -16 3 0 7 -4 8 -12
2 -12 -8 -28 -10 -43 -3 -12 5 -73 3 -88 -3 -10 -4 -17 -2 -17 5 0 7 -4 7 -12
1 -11 -8 -32 -10 -40 -4 -7 6 -81 5 -89 0z"/>
<path d="M1004 2088 c3 -10 1 -18 -4 -18 -6 0 -10 4 -10 9 0 13 -53 9 -62 -4
-5 -6 -11 -5 -17 4 -7 12 -13 12 -24 3 -7 -7 -17 -9 -20 -5 -4 3 -7 1 -7 -6 0
-8 -8 -11 -20 -8 -11 3 -18 1 -14 -4 3 -5 2 -15 -2 -21 -11 -18 -12 -48 -2
-48 5 0 6 -4 3 -10 -3 -5 1 -10 10 -10 9 0 14 -4 11 -9 -4 -5 32 -9 81 -9 49
0 93 -1 98 -2 6 -2 13 -2 17 -1 4 0 77 1 163 2 142 1 157 3 166 21 5 10 14 16
18 13 5 -3 5 11 1 30 -4 19 -6 36 -4 39 2 4 1 4 -2 1 -4 -2 -15 5 -25 17 -11
11 -19 16 -19 10 0 -7 -7 -12 -15 -12 -8 0 -15 5 -15 10 0 6 -5 10 -11 10 -5
0 -8 -4 -5 -9 3 -5 -1 -12 -10 -15 -8 -3 -13 -2 -10 3 3 5 -1 11 -8 14 -8 3
-17 1 -20 -6 -5 -9 -7 -9 -12 1 -3 6 -10 12 -15 12 -6 0 -7 -5 -3 -11 4 -8 0
-8 -15 0 -12 7 -26 9 -32 6 -5 -4 -17 -1 -25 6 -12 10 -15 10 -12 -1 2 -7 -3
-15 -11 -18 -8 -2 -11 0 -8 5 4 6 -14 9 -46 7 -32 -2 -55 2 -60 9 -6 8 -7 6
-3 -5z"/>
<path d="M929 1706 c-2 -3 -24 -7 -48 -10 -24 -3 -49 -11 -55 -17 -8 -9 -8
-10 1 -5 9 5 11 2 7 -8 -3 -9 -11 -13 -18 -9 -6 4 -4 -2 4 -12 8 -10 10 -16 3
-12 -6 4 -15 3 -18 -3 -4 -6 -1 -9 6 -8 7 2 14 -4 15 -12 2 -30 4 -32 19 -20
12 10 14 8 10 -9 -3 -17 -1 -20 11 -13 19 11 66 3 58 -9 -3 -5 -3 -9 1 -9 3 0
10 10 15 23 7 17 9 18 9 5 1 -20 27 -25 33 -6 3 8 8 7 18 -4 13 -13 16 -13 30
2 9 10 11 10 5 1 -7 -11 -7 -13 2 -7 21 12 54 16 48 5 -4 -5 -11 -6 -17 -3 -7
4 -8 2 -4 -4 7 -12 36 -5 36 9 0 4 7 6 15 3 8 -4 12 -11 8 -18 -3 -6 6 0 22
14 16 14 25 19 21 12 -6 -9 -1 -11 18 -8 15 3 24 1 21 -5 -4 -5 -1 -9 4 -9 6
0 11 4 11 9 0 5 8 8 18 6 9 -1 22 2 29 7 7 6 14 5 19 -3 4 -7 3 -9 -4 -5 -6 3
-13 2 -17 -4 -9 -14 62 -5 80 10 8 7 18 9 23 7 4 -3 13 3 20 13 6 11 8 22 3
25 -5 3 -7 14 -4 25 3 12 0 20 -6 20 -7 0 -10 4 -7 8 3 5 0 9 -7 9 -7 0 -31 5
-53 11 -23 5 -48 6 -55 2 -7 -5 -23 -4 -36 1 -16 6 -22 5 -18 -1 8 -12 3 -12
-28 -1 -13 5 -30 6 -37 1 -7 -5 -24 -4 -37 1 -16 6 -22 5 -18 -1 7 -12 -2 -12
-30 -1 -11 5 -28 4 -37 -1 -12 -6 -18 -5 -18 2 0 6 -5 8 -12 3 -17 -10 -41
-10 -49 0 -3 4 -7 5 -10 3z"/>
<path d="M3145 1080 c-3 -5 -1 -10 4 -10 6 0 11 5 11 10 0 6 -2 10 -4 10 -3 0
-8 -4 -11 -10z"/>
</g>
</svg>
